<svg xmlns="http://www.w3.org/2000/svg">

  <symbol id="logo" viewBox="0 0 184 30" fill="none" xmlns="http://www.w3.org/2000/svg">
    <path
      d="M16.2436 7.09621C14.7531 7.93737 12.6466 7.96264 11.1376 7.15815C10.0953 6.60241 8.9154 6.28904 7.66565 6.28904C3.43204 6.28904 0 9.88465 0 14.32C0 18.7554 3.43204 22.3509 7.66565 22.3509C8.97908 22.3509 10.2154 22.0048 11.296 21.395C12.7864 20.5538 14.893 20.5286 16.4019 21.3331C17.4443 21.8888 18.6242 28 19.8739 28C24.1076 28 33 18.6066 33 14.1713C33 9.73585 24.1076 0 19.8739 0C18.5605 0 17.3242 6.48636 16.2436 7.09621Z"
      fill="#FC6D3E" />
    <path
      d="M47.064 17.424H47.4L47.768 10.944H52.76L50.776 22H43.272L41.224 10.944H46.648L47.064 17.424ZM55.9764 13.328C55.1657 13.328 54.5684 13.168 54.1844 12.848C53.8004 12.528 53.6084 12.016 53.6084 11.312C53.6084 10.608 53.8004 10.1013 54.1844 9.792C54.579 9.48267 55.1764 9.328 55.9764 9.328C57.5764 9.328 58.3764 9.97333 58.3764 11.264C58.3764 12 58.179 12.528 57.7844 12.848C57.3897 13.168 56.787 13.328 55.9764 13.328ZM53.6084 22V13.696H58.3764V22H53.6084ZM59.4715 10.08H64.2395V12.096L64.2075 12.784C64.2608 12.656 64.4368 12.56 64.7355 12.496C65.0342 12.4213 65.3542 12.384 65.6955 12.384C66.8795 12.384 67.7968 12.8107 68.4475 13.664C69.1088 14.5067 69.4395 15.7013 69.4395 17.248C69.4395 18.784 69.0982 19.9733 68.4155 20.816C67.7328 21.648 66.7622 22.064 65.5035 22.064C64.6502 22.064 63.9568 21.856 63.4235 21.44C63.3062 21.344 63.1995 21.2267 63.1035 21.088L62.7675 22H59.4715V10.08ZM63.9995 17.152V18.496C63.9995 18.6347 64.0368 18.7467 64.1115 18.832C64.1968 18.9173 64.3035 18.96 64.4315 18.96C64.5702 18.96 64.6822 18.9173 64.7675 18.832C64.8635 18.7467 64.9115 18.6347 64.9115 18.496V17.152C64.9115 17.024 64.8635 16.9173 64.7675 16.832C64.6822 16.736 64.5755 16.688 64.4475 16.688C64.3195 16.688 64.2128 16.736 64.1275 16.832C64.0422 16.9173 63.9995 17.024 63.9995 17.152ZM70.5221 17.296C70.5221 15.664 70.8901 14.4373 71.6261 13.616C72.3728 12.7947 73.5888 12.384 75.2741 12.384C76.9595 12.384 78.1328 12.7253 78.7941 13.408C79.4555 14.0907 79.7861 15.2107 79.7861 16.768L79.7061 18H75.2901V18.544C75.5568 18.608 75.9461 18.64 76.4581 18.64C77.5461 18.64 78.4261 18.592 79.0981 18.496L79.4341 18.448V21.456C79.3488 21.5093 79.2101 21.5787 79.0181 21.664C78.8368 21.7387 78.3941 21.84 77.6901 21.968C76.9861 22.096 76.2021 22.16 75.3381 22.16C73.6315 22.16 72.3995 21.7547 71.6421 20.944C70.8955 20.1333 70.5221 18.9173 70.5221 17.296ZM75.0501 16.576V17.2H75.9621V16.576C75.9621 16.4373 75.9141 16.3253 75.8181 16.24C75.7328 16.1547 75.6208 16.112 75.4821 16.112C75.3541 16.112 75.2475 16.1547 75.1621 16.24C75.0875 16.3253 75.0501 16.4373 75.0501 16.576ZM86.95 16.048V16.928C87.1633 16.9493 87.5367 16.96 88.07 16.96C89.0727 16.96 89.9687 16.928 90.758 16.864L91.142 16.832V21.616C90.1073 21.9787 88.6353 22.16 86.726 22.16C84.8273 22.16 83.3713 21.6747 82.358 20.704C81.3553 19.7333 80.854 18.2933 80.854 16.384C80.854 14.464 81.35 13.0507 82.342 12.144C83.334 11.2373 84.8113 10.784 86.774 10.784C87.5953 10.784 88.3687 10.832 89.094 10.928C89.83 11.024 90.3527 11.12 90.662 11.216L91.142 11.36V16.288C90.214 16.128 88.8167 16.048 86.95 16.048ZM101.625 15.952L101.545 17.92L101.945 17.904V21.536C101.753 21.696 101.422 21.84 100.953 21.968C100.483 22.096 100.041 22.16 99.6247 22.16C99.2087 22.16 98.8781 22.1227 98.6327 22.048C98.3874 21.9733 98.2061 21.8933 98.0887 21.808C97.9714 21.712 97.8807 21.6053 97.8167 21.488C97.7207 21.3173 97.6727 21.1733 97.6727 21.056C97.0861 21.792 96.1527 22.16 94.8727 22.16C93.1127 22.16 92.2327 21.4133 92.2327 19.92C92.2327 19.024 92.5741 18.3893 93.2567 18.016C93.9394 17.632 95.1341 17.4027 96.8407 17.328C96.8407 16.9547 96.4301 16.768 95.6087 16.768C95.0541 16.768 94.5207 16.8373 94.0087 16.976C93.5074 17.1147 93.1447 17.2533 92.9207 17.392L92.5687 17.6V13.392C92.6647 13.3173 92.8087 13.2267 93.0007 13.12C93.1927 13.0027 93.6461 12.8533 94.3607 12.672C95.0754 12.48 95.8594 12.384 96.7127 12.384C98.4194 12.384 99.6621 12.672 100.441 13.248C101.23 13.824 101.625 14.7253 101.625 15.952ZM97.0967 18.496V17.856L96.1847 18.112V18.496C96.1847 18.6347 96.2274 18.7467 96.3127 18.832C96.4087 18.9173 96.5207 18.96 96.6487 18.96C96.7874 18.96 96.8941 18.9173 96.9687 18.832C97.0541 18.7467 97.0967 18.6347 97.0967 18.496ZM107.26 12.384C108.103 12.384 108.86 12.432 109.532 12.528C110.215 12.624 110.684 12.72 110.94 12.816L111.308 12.96V16.96C110.583 16.5867 109.5 16.4 108.06 16.4V16.784C109.383 16.912 110.289 17.1413 110.78 17.472C111.271 17.8027 111.516 18.4053 111.516 19.28C111.516 20.1547 111.191 20.8533 110.54 21.376C109.889 21.8987 108.753 22.16 107.132 22.16C106.268 22.16 105.5 22.112 104.828 22.016C104.156 21.92 103.697 21.824 103.452 21.728L103.084 21.584V18.112C103.383 18.2613 103.841 18.4 104.46 18.528C105.089 18.6453 105.735 18.704 106.396 18.704V18.32C105.255 18.2133 104.391 17.952 103.804 17.536C103.217 17.12 102.924 16.448 102.924 15.52C102.924 14.5813 103.281 13.824 103.996 13.248C104.711 12.672 105.799 12.384 107.26 12.384ZM118.249 17.008V17.728H119.689V21.504C119.636 21.5573 119.545 21.6213 119.417 21.696C119.3 21.76 118.985 21.856 118.473 21.984C117.961 22.1013 117.369 22.16 116.697 22.16C114.254 22.16 113.033 21.0933 113.033 18.96V17.008H112.409V13.024C112.868 12.8853 113.273 12.6293 113.625 12.256C113.977 11.8827 114.217 11.5467 114.345 11.248L114.537 10.784H118.553V12.544H119.689V17.008H118.249ZM130.937 10.784C131.812 10.784 132.628 10.8427 133.385 10.96C134.153 11.0667 134.703 11.1787 135.033 11.296L135.513 11.472V16.048C134.649 15.6533 133.465 15.456 131.961 15.456V15.872C133.348 15.9787 134.345 16.256 134.953 16.704C135.561 17.152 135.865 17.8293 135.865 18.736C135.865 19.824 135.423 20.6667 134.537 21.264C133.652 21.8613 132.287 22.16 130.441 22.16C129.385 22.16 128.452 22.1013 127.641 21.984C126.831 21.856 126.287 21.7333 126.009 21.616L125.577 21.424V17.44C125.673 17.4827 125.817 17.5413 126.009 17.616C126.201 17.6907 126.628 17.7867 127.289 17.904C127.961 18.0213 128.681 18.08 129.449 18.08V17.696C128.148 17.6 127.167 17.3227 126.505 16.864C125.844 16.4053 125.513 15.6053 125.513 14.464C125.513 13.3227 125.967 12.4267 126.873 11.776C127.78 11.1147 129.135 10.784 130.937 10.784ZM142.448 17.008V17.728H143.888V21.504C143.835 21.5573 143.744 21.6213 143.616 21.696C143.499 21.76 143.184 21.856 142.672 21.984C142.16 22.1013 141.568 22.16 140.896 22.16C138.453 22.16 137.232 21.0933 137.232 18.96V17.008H136.608V13.024C137.067 12.8853 137.472 12.6293 137.824 12.256C138.176 11.8827 138.416 11.5467 138.544 11.248L138.736 10.784H142.752V12.544H143.888V17.008H142.448ZM150.414 12.544H154.942V22H150.91L150.75 20.832C150.707 20.9493 150.611 21.0933 150.462 21.264C150.313 21.4347 150.153 21.5787 149.982 21.696C149.513 22.0053 148.894 22.16 148.126 22.16C147.081 22.16 146.291 21.872 145.758 21.296C145.235 20.72 144.974 19.888 144.974 18.8V12.544H149.502V17.808C149.502 17.936 149.545 18.048 149.63 18.144C149.726 18.2293 149.838 18.272 149.966 18.272C150.094 18.272 150.201 18.2293 150.286 18.144C150.371 18.048 150.414 17.936 150.414 17.808V12.544ZM165.993 22H161.961L161.801 20.832C161.758 20.9493 161.667 21.0933 161.529 21.264C161.401 21.4347 161.262 21.5787 161.113 21.696C160.718 22.0053 160.211 22.16 159.593 22.16C158.473 22.16 157.598 21.7333 156.969 20.88C156.339 20.0267 156.025 18.8373 156.025 17.312C156.025 15.776 156.345 14.5707 156.985 13.696C157.625 12.8213 158.499 12.384 159.609 12.384C159.95 12.384 160.254 12.4267 160.521 12.512C160.787 12.5867 160.969 12.6613 161.065 12.736L161.209 12.848V10.08H165.993V22ZM160.553 17.152V18.496C160.553 18.6347 160.59 18.7467 160.665 18.832C160.75 18.9173 160.857 18.96 160.985 18.96C161.123 18.96 161.235 18.9173 161.321 18.832C161.417 18.7467 161.465 18.6347 161.465 18.496V17.152C161.465 17.024 161.417 16.9173 161.321 16.832C161.235 16.736 161.129 16.688 161.001 16.688C160.873 16.688 160.766 16.736 160.681 16.832C160.595 16.9173 160.553 17.024 160.553 17.152ZM169.443 13.328C168.633 13.328 168.035 13.168 167.651 12.848C167.267 12.528 167.075 12.016 167.075 11.312C167.075 10.608 167.267 10.1013 167.651 9.792C168.046 9.48267 168.643 9.328 169.443 9.328C171.043 9.328 171.843 9.97333 171.843 11.264C171.843 12 171.646 12.528 171.251 12.848C170.857 13.168 170.254 13.328 169.443 13.328ZM167.075 22V13.696H171.843V22H167.075ZM178.234 22.144H177.594C176.037 22.144 174.869 21.76 174.09 20.992C173.322 20.224 172.938 18.9867 172.938 17.28C172.938 15.5733 173.322 14.3307 174.09 13.552C174.869 12.7733 176.037 12.384 177.594 12.384H178.234C179.792 12.384 180.96 12.7733 181.738 13.552C182.517 14.3307 182.906 15.5733 182.906 17.28C182.906 18.9867 182.517 20.224 181.738 20.992C180.97 21.76 179.802 22.144 178.234 22.144ZM177.466 17.152V18.496C177.466 18.6347 177.504 18.7467 177.578 18.832C177.664 18.9173 177.77 18.96 177.898 18.96C178.037 18.96 178.149 18.9173 178.234 18.832C178.33 18.7467 178.378 18.6347 178.378 18.496V17.152C178.378 17.024 178.33 16.9173 178.234 16.832C178.149 16.736 178.042 16.688 177.914 16.688C177.786 16.688 177.68 16.736 177.594 16.832C177.509 16.9173 177.466 17.024 177.466 17.152Z"
      fill="black" />
  </symbol>

  <symbol id="arrow-right" viewBox="0 0 6 10" fill="none" xmlns="http://www.w3.org/2000/svg">
    <path fill-rule="evenodd" clip-rule="evenodd"
      d="M0.195262 0.195262C0.455612 -0.0650874 0.877722 -0.0650874 1.13807 0.195262L5.13807 4.19526C5.39842 4.45561 5.39842 4.87772 5.13807 5.13807L1.13807 9.13807C0.877722 9.39842 0.455612 9.39842 0.195262 9.13807C-0.0650874 8.87772 -0.0650874 8.45561 0.195262 8.19526L3.72386 4.66667L0.195262 1.13807C-0.0650874 0.877722 -0.0650874 0.455612 0.195262 0.195262Z"
      fill="#FC6D3E" />
  </symbol>

  <symbol id="calendar" viewBox="0 0 16 16" fill="none" xmlns="http://www.w3.org/2000/svg">
    <path
      d="M13 2.5H3C2.72386 2.5 2.5 2.72386 2.5 3V13C2.5 13.2761 2.72386 13.5 3 13.5H13C13.2761 13.5 13.5 13.2761 13.5 13V3C13.5 2.72386 13.2761 2.5 13 2.5Z"
      stroke="#A4A4A4" stroke-linecap="round" stroke-linejoin="round" />
    <path d="M11 1.5V3.5" stroke="#A4A4A4" stroke-linecap="round" stroke-linejoin="round" />
    <path d="M5 1.5V3.5" stroke="#A4A4A4" stroke-linecap="round" stroke-linejoin="round" />
    <path d="M2.5 5.5H13.5" stroke="#A4A4A4" stroke-linecap="round" stroke-linejoin="round" />
  </symbol>

  <symbol id="time" viewBox="0 0 16 16" fill="none" xmlns="http://www.w3.org/2000/svg">
    <path
      d="M8 14C11.3137 14 14 11.3137 14 8C14 4.68629 11.3137 2 8 2C4.68629 2 2 4.68629 2 8C2 11.3137 4.68629 14 8 14Z"
      stroke="#A4A4A4" stroke-miterlimit="10" />
    <path d="M8 4.5V8H11.5" stroke="#A4A4A4" stroke-linecap="round" stroke-linejoin="round" />
  </symbol>

  <symbol id="three-dots" viewBox="0 0 23 4" fill="none" xmlns="http://www.w3.org/2000/svg">
    <circle cx="2" cy="2" r="2" fill="#C4C4C4" />
    <circle cx="11.5" cy="2" r="2" fill="#C4C4C4" />
    <circle cx="21" cy="2" r="2" fill="#C4C4C4" />
  </symbol>

  <symbol id="music" viewBox="0 0 32 32" fill="none" xmlns="http://www.w3.org/2000/svg">
    <path
      d="M22.5 25C24.433 25 26 23.433 26 21.5C26 19.567 24.433 18 22.5 18C20.567 18 19 19.567 19 21.5C19 23.433 20.567 25 22.5 25Z"
      stroke="#FC6D3E" stroke-width="2" stroke-linecap="round" stroke-linejoin="round" />
    <path
      d="M6.5 29C8.433 29 10 27.433 10 25.5C10 23.567 8.433 22 6.5 22C4.567 22 3 23.567 3 25.5C3 27.433 4.567 29 6.5 29Z"
      stroke="#FC6D3E" stroke-width="2" stroke-linecap="round" stroke-linejoin="round" />
    <path d="M26 10L10 14" stroke="#FC6D3E" stroke-width="2" stroke-linecap="round"
      stroke-linejoin="round" />
    <path d="M10 25.5V8L26 4V21.5" stroke="#FC6D3E" stroke-width="2" stroke-linecap="round"
      stroke-linejoin="round" />
  </symbol>

  <symbol id="search" viewBox="0 0 24 24" fill="none" xmlns="http://www.w3.org/2000/svg">
    <path
      d="M11.5 20C16.1944 20 20 16.1944 20 11.5C20 6.80558 16.1944 3 11.5 3C6.80558 3 3 6.80558 3 11.5C3 16.1944 6.80558 20 11.5 20Z"
      stroke="#AAAAAA" stroke-width="2" stroke-linecap="round" stroke-linejoin="round" />
    <path d="M20.9999 21L17.5 17.5001" stroke="#AAAAAA" stroke-width="2" stroke-linecap="round"
      stroke-linejoin="round" />
  </symbol>

  <symbol id="heart" viewBox="0 0 24 24" fill="none" xmlns="http://www.w3.org/2000/svg">
    <path
      d="M16.5022 3.00001C15.6291 2.99851 14.7677 3.20077 13.9865 3.59072C13.2052 3.98066 12.5258 4.54752 12.0022 5.24621C11.293 4.30266 10.3051 3.606 9.17823 3.25482C8.05134 2.90365 6.84256 2.91573 5.72291 3.28936C4.60327 3.663 3.62948 4.37926 2.93932 5.3368C2.24916 6.29434 1.8776 7.44467 1.8772 8.62501C1.8772 15.3621 11.2373 20.6813 11.6357 20.9044C11.7477 20.9671 11.8739 21 12.0022 21C12.1305 21 12.2567 20.9671 12.3687 20.9044C14.0902 19.8961 15.7059 18.7173 17.1914 17.3856C20.4665 14.438 22.1272 11.4905 22.1272 8.62501C22.1255 7.13368 21.5323 5.70393 20.4778 4.6494C19.4233 3.59487 17.9935 3.0017 16.5022 3.00001Z"
      fill="#FC6D3E" />
  </symbol>

  <symbol id="volume" viewBox="0 0 16 16" fill="none" xmlns="http://www.w3.org/2000/svg">
    <path
      d="M5 10.5H2C1.86739 10.5 1.74021 10.4473 1.64645 10.3536C1.55268 10.2598 1.5 10.1326 1.5 10V6C1.5 5.86739 1.55268 5.74021 1.64645 5.64645C1.74021 5.55268 1.86739 5.5 2 5.5H5L9.5 2V14L5 10.5Z"
      stroke="#AAAAAA" stroke-linecap="round" stroke-linejoin="round" />
    <path d="M5 5.5V10.5" stroke="#AAAAAA" stroke-linecap="round" stroke-linejoin="round" />
    <path
      d="M11.9124 6.58582C12.0981 6.77153 12.2454 6.99201 12.3459 7.23466C12.4464 7.47731 12.4981 7.73739 12.4981 8.00003C12.4981 8.26267 12.4464 8.52274 12.3459 8.7654C12.2454 9.00805 12.0981 9.22853 11.9124 9.41424"
      stroke="#AAAAAA" stroke-linecap="round" stroke-linejoin="round" />
  </symbol>

  <symbol id="repeat" viewBox="0 0 16 16" fill="none" xmlns="http://www.w3.org/2000/svg">
    <path
      d="M2 8.50001C2.13261 8.5 2.25978 8.44732 2.35355 8.35356C2.44731 8.25979 2.49999 8.13262 2.5 8.00001C2.50105 7.07207 2.87013 6.18244 3.52628 5.52629C4.18243 4.87014 5.07206 4.50106 6 4.50001H12.7929L12.1464 5.14646C12.0527 5.24024 12 5.36742 12 5.50003C12 5.63264 12.0527 5.75982 12.1465 5.85359C12.2402 5.94735 12.3674 6.00003 12.5 6.00002C12.6326 6.00002 12.7598 5.94733 12.8536 5.85356L14.3536 4.35356C14.3553 4.35188 14.3567 4.34999 14.3583 4.34828C14.3681 4.33824 14.3777 4.32792 14.3866 4.31706C14.3918 4.31065 14.3964 4.3039 14.4013 4.29731C14.4061 4.29084 14.4112 4.28453 14.4157 4.27781C14.4208 4.27015 14.4252 4.26222 14.4299 4.25438C14.4336 4.24821 14.4374 4.24223 14.4408 4.23591C14.4451 4.22797 14.4487 4.21983 14.4525 4.21174C14.4556 4.20503 14.459 4.19844 14.4618 4.19154C14.4651 4.1837 14.4677 4.1757 14.4706 4.16774C14.4732 4.16029 14.4761 4.15297 14.4784 4.14537C14.4808 4.13734 14.4826 4.12916 14.4846 4.12104C14.4865 4.11336 14.4887 4.10572 14.4903 4.09788C14.4922 4.08845 14.4933 4.0789 14.4946 4.06935C14.4956 4.06272 14.4968 4.05622 14.4975 4.04951C14.5008 4.01659 14.5008 3.98343 14.4975 3.95051C14.4968 3.9438 14.4956 3.9373 14.4946 3.93067C14.4933 3.92112 14.4922 3.91157 14.4903 3.90214C14.4887 3.8943 14.4865 3.88667 14.4846 3.87898C14.4826 3.87086 14.4808 3.86268 14.4784 3.85466C14.4761 3.84706 14.4732 3.83973 14.4706 3.83229C14.4677 3.82432 14.4651 3.81633 14.4618 3.80848C14.459 3.80159 14.4556 3.79499 14.4525 3.78828C14.4487 3.78019 14.4451 3.77204 14.4408 3.76411C14.4374 3.75779 14.4336 3.75181 14.4299 3.74565C14.4252 3.7378 14.4208 3.72987 14.4157 3.72221C14.4112 3.71549 14.4061 3.70918 14.4013 3.70271C14.3964 3.69612 14.3918 3.68937 14.3866 3.68296C14.3775 3.67189 14.3678 3.66139 14.3578 3.65113C14.3563 3.64964 14.3551 3.64796 14.3536 3.64647L12.8536 2.14647C12.7598 2.05269 12.6326 2.00001 12.5 2C12.3674 1.99999 12.2402 2.05267 12.1465 2.14643C12.0527 2.2402 12 2.36738 12 2.49999C12 2.6326 12.0527 2.75978 12.1464 2.85356L12.7929 3.50001H6C4.80694 3.50135 3.66313 3.97589 2.8195 4.81951C1.97588 5.66314 1.50134 6.80695 1.5 8.00001C1.50001 8.13262 1.55269 8.25979 1.64645 8.35356C1.74022 8.44732 1.86739 8.5 2 8.50001Z"
      fill="#AAAAAA" />
    <path
      d="M13.9999 7.5C13.8673 7.50001 13.7402 7.55269 13.6464 7.64645C13.5526 7.74022 13.5 7.86739 13.4999 8C13.4989 8.92794 13.1298 9.81757 12.4737 10.4737C11.8175 11.1299 10.9279 11.499 9.99995 11.5H3.20705L3.85352 10.8535C3.94729 10.7598 3.99996 10.6326 3.99996 10.5C3.99995 10.3674 3.94727 10.2402 3.85349 10.1464C3.75972 10.0527 3.63254 9.99998 3.49993 9.99999C3.36731 9.99999 3.24014 10.0527 3.14637 10.1465L1.64637 11.6465C1.64487 11.6479 1.64362 11.6496 1.64214 11.6511C1.63216 11.6614 1.62246 11.6719 1.61338 11.683C1.60812 11.6894 1.60352 11.6961 1.59863 11.7027C1.5938 11.7092 1.58878 11.7155 1.58428 11.7222C1.57916 11.7299 1.5747 11.7378 1.57005 11.7456C1.56638 11.7518 1.56252 11.7578 1.55914 11.7641C1.55488 11.772 1.55128 11.7802 1.54748 11.7883C1.54433 11.795 1.54096 11.8016 1.53811 11.8085C1.53486 11.8163 1.53223 11.8243 1.5294 11.8323C1.52674 11.8397 1.52387 11.847 1.52157 11.8546C1.51914 11.8627 1.51734 11.8708 1.51533 11.879C1.5134 11.8867 1.51122 11.8943 1.50967 11.9021C1.50779 11.9116 1.50663 11.9211 1.50532 11.9307C1.50439 11.9373 1.50311 11.9438 1.50245 11.9505C1.49918 11.9834 1.49918 12.0166 1.50245 12.0495C1.50311 12.0562 1.50439 12.0627 1.50532 12.0693C1.50663 12.0789 1.50779 12.0884 1.50967 12.0979C1.51122 12.1057 1.5134 12.1133 1.51533 12.121C1.51734 12.1292 1.51914 12.1373 1.52157 12.1454C1.52387 12.153 1.52674 12.1603 1.5294 12.1677C1.53223 12.1757 1.53486 12.1837 1.53811 12.1915C1.54096 12.1984 1.54433 12.205 1.54748 12.2117C1.55128 12.2198 1.55488 12.228 1.55914 12.2359C1.56252 12.2422 1.56639 12.2482 1.57005 12.2544C1.5747 12.2622 1.57915 12.2701 1.58428 12.2778C1.58878 12.2845 1.5938 12.2908 1.59863 12.2973C1.60352 12.3039 1.60812 12.3106 1.61338 12.317C1.62229 12.3279 1.63183 12.3382 1.64161 12.3483C1.64327 12.35 1.64468 12.3519 1.64637 12.3535L3.14637 13.8535C3.1928 13.9 3.24792 13.9368 3.30858 13.9619C3.36924 13.9871 3.43426 14 3.49993 14C3.56559 14 3.63061 13.9871 3.69127 13.962C3.75194 13.9368 3.80706 13.9 3.85349 13.8536C3.89993 13.8071 3.93676 13.752 3.96189 13.6914C3.98702 13.6307 3.99996 13.5657 3.99996 13.5C3.99996 13.4344 3.98703 13.3693 3.96191 13.3087C3.93678 13.248 3.89995 13.1929 3.85352 13.1465L3.20705 12.5H9.99995C11.193 12.4987 12.3368 12.0241 13.1804 11.1805C14.0241 10.3369 14.4986 9.19306 14.4999 8C14.4999 7.86739 14.4473 7.74022 14.3535 7.64645C14.2597 7.55269 14.1326 7.50001 13.9999 7.5Z"
      fill="#AAAAAA" />
  </symbol>

  <symbol id="skip-forward" viewBox="0 0 16 16" fill="none" xmlns="http://www.w3.org/2000/svg">
    <path
      d="M13 2.5V13.5C13 13.6326 12.9473 13.7598 12.8536 13.8536C12.7598 13.9473 12.6326 14 12.5 14C12.3674 14 12.2402 13.9473 12.1464 13.8536C12.0527 13.7598 12 13.6326 12 13.5V8.89151L4.52148 13.4618C4.36989 13.5544 4.19636 13.605 4.01873 13.6083C3.84111 13.6116 3.6658 13.5676 3.51085 13.4807C3.3559 13.3938 3.2269 13.2672 3.13711 13.1139C3.04733 12.9606 3 12.7861 3 12.6085V3.39154C3 3.21389 3.04732 3.03944 3.1371 2.88615C3.22688 2.73285 3.35588 2.60624 3.51082 2.51934C3.66576 2.43243 3.84106 2.38837 4.01868 2.39169C4.1963 2.39501 4.36983 2.44558 4.52142 2.53821L12 7.10846V2.5C12 2.36739 12.0527 2.24021 12.1464 2.14645C12.2402 2.05268 12.3674 2 12.5 2C12.6326 2 12.7598 2.05268 12.8536 2.14645C12.9473 2.24021 13 2.36739 13 2.5Z"
      fill="#AAAAAA" />
  </symbol>

  <symbol id="pause" viewBox="0 0 40 40" fill="none" xmlns="http://www.w3.org/2000/svg">
    <rect width="40" height="40" rx="20" fill="#AAAAAA" />
    <path
      d="M27.0385 21.4138C26.9679 21.4862 26.7012 21.7962 26.4528 22.0512C24.9963 23.655 21.197 26.28 19.2085 27.0813C18.9065 27.21 18.143 27.4825 17.735 27.5C17.3441 27.5 16.9715 27.41 16.6159 27.2275C16.1727 26.9725 15.8171 26.5713 15.6223 26.0975C15.4968 25.7688 15.302 24.785 15.302 24.7675C15.1072 23.6913 15 21.9425 15 20.01C15 18.1688 15.1072 16.4913 15.2667 15.3988C15.2849 15.3812 15.4798 14.1588 15.6929 13.74C16.0838 12.975 16.8473 12.5 17.6644 12.5H17.735C18.2672 12.5187 19.3863 12.9938 19.3863 13.0113C21.2677 13.8138 24.9793 16.31 26.471 17.9688C26.471 17.9688 26.8911 18.395 27.0738 18.6613C27.3587 19.0437 27.5 19.5175 27.5 19.9913C27.5 20.52 27.3405 21.0125 27.0385 21.4138Z"
      fill="white" />
  </symbol>

  <symbol id="skip-back" viewBox="0 0 16 16" fill="none" xmlns="http://www.w3.org/2000/svg">
    <path
      d="M3.5 2C3.63261 2 3.75978 2.05268 3.85355 2.14645C3.94732 2.24022 4 2.36739 4 2.5V7.10846L11.4786 2.53821C11.6302 2.44558 11.8037 2.39501 11.9813 2.39169C12.1589 2.38838 12.3342 2.43244 12.4892 2.51934C12.6441 2.60624 12.7731 2.73285 12.8629 2.88615C12.9527 3.03944 13 3.21389 13 3.39154V12.6085C12.9999 12.7861 12.9526 12.9605 12.8628 13.1137C12.773 13.267 12.644 13.3936 12.489 13.4805C12.3341 13.5674 12.1588 13.6114 11.9812 13.6081C11.8036 13.6048 11.6301 13.5543 11.4785 13.4618L4 8.89151V13.5C4 13.6326 3.94732 13.7598 3.85355 13.8536C3.75979 13.9473 3.63261 14 3.5 14C3.36739 14 3.24021 13.9473 3.14645 13.8536C3.05268 13.7598 3 13.6326 3 13.5V2.5C3 2.36739 3.05268 2.24022 3.14645 2.14645C3.24022 2.05268 3.36739 2 3.5 2Z"
      fill="#AAAAAA" />
  </symbol>

  <symbol id="mix" viewBox="0 0 16 16" fill="none" xmlns="http://www.w3.org/2000/svg">
    <path
      d="M14.9946 11.4307C14.9933 11.4211 14.9922 11.4116 14.9903 11.4021C14.9887 11.3943 14.9866 11.3867 14.9846 11.379C14.9826 11.3709 14.9808 11.3627 14.9784 11.3546C14.9761 11.3471 14.9732 11.3398 14.9706 11.3324C14.9678 11.3244 14.9651 11.3163 14.9618 11.3084C14.959 11.3017 14.9557 11.2952 14.9526 11.2886C14.9488 11.2804 14.9451 11.2721 14.9408 11.264C14.9375 11.258 14.9338 11.2522 14.9303 11.2463C14.9255 11.2382 14.9209 11.23 14.9156 11.2221C14.9114 11.2159 14.9068 11.2101 14.9024 11.2041C14.8972 11.197 14.8921 11.1897 14.8864 11.1828C14.8792 11.174 14.8713 11.1657 14.8635 11.1574C14.8601 11.1538 14.8571 11.1499 14.8536 11.1464L13.3536 9.64642C13.3071 9.59999 13.252 9.56316 13.1914 9.53803C13.1307 9.5129 13.0657 9.49997 13 9.49997C12.9343 9.49997 12.8693 9.5129 12.8086 9.53803C12.748 9.56316 12.6929 9.59999 12.6464 9.64642C12.6 9.69285 12.5632 9.74798 12.538 9.80865C12.5129 9.86931 12.5 9.93433 12.5 10C12.5 10.0657 12.5129 10.1307 12.538 10.1914C12.5632 10.252 12.6 10.3071 12.6464 10.3536L13.2929 11H12.5585C12.0015 10.9994 11.4526 10.8662 10.9573 10.6113C10.462 10.3565 10.0346 9.98729 9.71039 9.53436L7.10333 5.88446C6.68649 5.30212 6.13693 4.82744 5.50015 4.49974C4.86337 4.17203 4.15769 4.00072 3.44153 4H2C1.86739 4 1.74021 4.05268 1.64645 4.14645C1.55268 4.24021 1.5 4.36739 1.5 4.5C1.5 4.63261 1.55268 4.75979 1.64645 4.85355C1.74021 4.94732 1.86739 5 2 5H3.44153C3.99854 5.00056 4.5474 5.13379 5.04268 5.38866C5.53795 5.64353 5.96539 6.01271 6.28961 6.46564L8.89667 10.1155C9.31351 10.6979 9.86307 11.1726 10.4999 11.5003C11.1366 11.828 11.8423 11.9993 12.5585 12H13.2929L12.6464 12.6464C12.5526 12.7402 12.5 12.8674 12.5 13C12.5 13.1326 12.5526 13.2598 12.6464 13.3536C12.7402 13.4474 12.8674 13.5 13 13.5C13.1326 13.5 13.2598 13.4474 13.3536 13.3536L14.8536 11.8536C14.8571 11.8501 14.8601 11.8462 14.8635 11.8426C14.8713 11.8343 14.8792 11.826 14.8864 11.8172C14.8921 11.8103 14.8972 11.803 14.9024 11.7959C14.9068 11.7899 14.9114 11.7841 14.9156 11.7779C14.9209 11.77 14.9255 11.7618 14.9303 11.7537C14.9338 11.7478 14.9375 11.742 14.9408 11.736C14.9451 11.7279 14.9488 11.7196 14.9526 11.7114C14.9557 11.7048 14.959 11.6983 14.9618 11.6916C14.9651 11.6837 14.9678 11.6756 14.9706 11.6676C14.9732 11.6602 14.9761 11.6529 14.9784 11.6454C14.9808 11.6373 14.9826 11.6291 14.9846 11.621C14.9866 11.6133 14.9887 11.6057 14.9903 11.5979C14.9922 11.5884 14.9933 11.5789 14.9946 11.5693C14.9955 11.5627 14.9968 11.5562 14.9975 11.5495C15.0008 11.5166 15.0008 11.4834 14.9975 11.4505C14.9968 11.4438 14.9955 11.4373 14.9946 11.4307Z"
      fill="#AAAAAA" />
    <path
      d="M8.93842 6.68632C8.99184 6.7245 9.05226 6.75179 9.11623 6.76661C9.1802 6.78144 9.24647 6.78351 9.31124 6.77271C9.37601 6.76191 9.43802 6.73846 9.49372 6.70368C9.54942 6.66891 9.59772 6.6235 9.63587 6.57004L9.71045 6.46561C10.0347 6.01269 10.4621 5.64351 10.9574 5.38863C11.4527 5.13376 12.0015 5.00053 12.5585 4.99997H13.2929L12.6465 5.6464C12.5527 5.74017 12.5 5.86736 12.5 5.99997C12.5 6.13259 12.5527 6.25978 12.6465 6.35355C12.7403 6.44733 12.8674 6.50001 13.0001 6.50001C13.1327 6.50001 13.2599 6.44733 13.3536 6.35355L14.8536 4.85355C14.8572 4.85003 14.8602 4.84618 14.8636 4.84258C14.8714 4.83428 14.8792 4.82599 14.8865 4.81717C14.8922 4.81025 14.8972 4.80298 14.9025 4.79583C14.9069 4.78985 14.9115 4.78408 14.9157 4.7779C14.921 4.76999 14.9256 4.76179 14.9304 4.75364C14.9339 4.74775 14.9376 4.74201 14.9408 4.73595C14.9452 4.72788 14.9489 4.71957 14.9527 4.71134C14.9558 4.70475 14.9591 4.69829 14.9619 4.69155C14.9652 4.68364 14.9678 4.67557 14.9707 4.66753C14.9733 4.66014 14.9761 4.65287 14.9784 4.64533C14.9809 4.63727 14.9827 4.62909 14.9847 4.62094C14.9866 4.61325 14.9888 4.60569 14.9904 4.59786C14.9922 4.5884 14.9934 4.57883 14.9947 4.56929C14.9956 4.56267 14.9969 4.55617 14.9976 4.54947C15.0008 4.51655 15.0008 4.48339 14.9976 4.45047C14.9969 4.44377 14.9956 4.43727 14.9947 4.43065C14.9934 4.42112 14.9922 4.41155 14.9904 4.40209C14.9888 4.39426 14.9866 4.38669 14.9847 4.379C14.9827 4.37085 14.9809 4.36268 14.9784 4.35462C14.9761 4.34708 14.9733 4.3398 14.9707 4.33242C14.9678 4.32438 14.9652 4.3163 14.9619 4.3084C14.9591 4.30166 14.9558 4.2952 14.9527 4.28861C14.9489 4.28037 14.9452 4.27207 14.9408 4.264C14.9376 4.25794 14.9339 4.2522 14.9304 4.24631C14.9256 4.23816 14.921 4.22995 14.9157 4.22205C14.9115 4.21587 14.9069 4.2101 14.9025 4.20412C14.8972 4.19696 14.8922 4.1897 14.8865 4.18277C14.8792 4.17395 14.8714 4.16567 14.8636 4.15737C14.8602 4.15377 14.8572 4.14992 14.8536 4.1464L13.3536 2.6464C13.2599 2.55262 13.1327 2.49994 13.0001 2.49994C12.8674 2.49994 12.7403 2.55262 12.6465 2.6464C12.5527 2.74017 12.5 2.86736 12.5 2.99997C12.5 3.13259 12.5527 3.25977 12.6465 3.35355L13.2929 3.99997H12.5585C11.8424 4.0007 11.1367 4.17201 10.4999 4.49971C9.86313 4.82741 9.31357 5.30209 8.89673 5.88444L8.82215 5.98887C8.78398 6.04229 8.75671 6.10272 8.74189 6.16668C8.72708 6.23065 8.72501 6.29691 8.73581 6.36168C8.74661 6.42644 8.77006 6.48845 8.80482 6.54415C8.83958 6.59985 8.88498 6.64816 8.93842 6.68632Z"
      fill="#AAAAAA" />
    <path
      d="M7.06165 9.31365C7.00822 9.27547 6.9478 9.24818 6.88383 9.23336C6.81986 9.21854 6.7536 9.21646 6.68883 9.22726C6.62405 9.23806 6.56205 9.26152 6.50634 9.29629C6.45064 9.33107 6.40234 9.37648 6.3642 9.42993L6.28961 9.53436C5.96539 9.98728 5.53795 10.3565 5.04268 10.6113C4.5474 10.8662 3.99854 10.9994 3.44153 11H2C1.86739 11 1.74021 11.0527 1.64645 11.1464C1.55268 11.2402 1.5 11.3674 1.5 11.5C1.5 11.6326 1.55268 11.7598 1.64645 11.8535C1.74021 11.9473 1.86739 12 2 12H3.44153C4.15769 11.9993 4.86337 11.828 5.50015 11.5003C6.13693 11.1726 6.68649 10.6979 7.10333 10.1155L7.17792 10.0111C7.21609 9.95768 7.24336 9.89725 7.25817 9.83329C7.27298 9.76932 7.27505 9.70306 7.26425 9.63829C7.25346 9.57353 7.23001 9.51152 7.19524 9.45582C7.16048 9.40012 7.11508 9.35181 7.06165 9.31365Z"
      fill="#AAAAAA" />
  </symbol>

  <symbol id="play" viewBox="0 0 24 24" fill="none" xmlns="http://www.w3.org/2000/svg">
    <path
      d="M21.3889 11.36L7.8911 3.11111C7.77741 3.04163 7.64726 3.00369 7.51404 3.0012C7.38083 2.9987 7.24935 3.03174 7.13314 3.09692C7.01692 3.16209 6.92017 3.25705 6.85283 3.37202C6.7855 3.48699 6.75 3.61783 6.75 3.75107V20.2489C6.75 20.3822 6.7855 20.513 6.85283 20.628C6.92017 20.743 7.01692 20.8379 7.13314 20.9031C7.24935 20.9683 7.38083 21.0013 7.51404 20.9988C7.64726 20.9963 7.77741 20.9584 7.8911 20.8889L21.3889 12.64C21.4985 12.573 21.5891 12.4789 21.652 12.3669C21.7148 12.2548 21.7478 12.1285 21.7478 12C21.7478 11.8715 21.7148 11.7452 21.652 11.6331C21.5891 11.5211 21.4985 11.427 21.3889 11.36Z"
      stroke="white" stroke-width="2" stroke-linecap="round" stroke-linejoin="round" />
  </symbol>
</svg>